<?xml version="1.0" encoding="utf-8"?>
<!-- Generator: Adobe Illustrator 16.0.0, SVG Export Plug-In . SVG Version: 6.00 Build 0)  -->
<!DOCTYPE svg PUBLIC "-//W3C//DTD SVG 1.1//EN" "http://www.w3.org/Graphics/SVG/1.1/DTD/svg11.dtd">
<svg version="1.1" id="Layer_1" xmlns="http://www.w3.org/2000/svg" xmlns:xlink="http://www.w3.org/1999/xlink" x="0px" y="0px"
	 width="20.78px" height="20.78px" viewBox="0 0 20.78 20.78" enable-background="new 0 0 20.78 20.78" xml:space="preserve">
<g>
	<defs>
		<rect id="SVGID_1_" y="0" width="20.78" height="20.779"/>
	</defs>
	<clipPath id="SVGID_2_">
		<use xlink:href="#SVGID_1_"  overflow="visible"/>
	</clipPath>
	<g clip-path="url(#SVGID_2_)">
		<defs>
			<rect id="SVGID_3_" y="0" width="20.78" height="20.779"/>
		</defs>
		<clipPath id="SVGID_4_">
			<use xlink:href="#SVGID_3_"  overflow="visible"/>
		</clipPath>
		<path clip-path="url(#SVGID_4_)" fill="#E64335" d="M19.967,6.478h-9.604c-2.146-0.002-3.888,1.736-3.89,3.882
			c0,0.667,0.17,1.322,0.496,1.904L2.168,4.025C5.666-0.5,12.17-1.335,16.696,2.163C18.151,3.286,19.28,4.775,19.967,6.478"/>
		<path clip-path="url(#SVGID_4_)" fill="#F8BA0D" d="M20.727,10.364c-0.006,5.722-4.641,10.359-10.363,10.363
			C9.93,20.729,9.498,20.7,9.068,20.641l4.663-8.334c1.07-1.861,0.434-4.235-1.424-5.311c-0.588-0.341-1.256-0.52-1.934-0.519h9.594
			C20.471,7.711,20.729,9.032,20.727,10.364"/>
		<path clip-path="url(#SVGID_4_)" fill="#34A753" d="M13.731,12.307l-4.663,8.334H9.061c-5.675-0.717-9.694-5.898-8.978-11.574
			C0.315,7.23,1.035,5.49,2.168,4.025l4.802,8.239l0.026,0.043c1.071,1.859,3.446,2.5,5.307,1.43
			C12.897,13.395,13.389,12.901,13.731,12.307"/>
		<path clip-path="url(#SVGID_4_)" fill="#F44336" d="M13.731,12.307c-1.07,1.859-3.445,2.5-5.306,1.43
			c-0.594-0.342-1.087-0.836-1.429-1.43L6.97,12.264c-1.049-1.873-0.382-4.241,1.49-5.29c0.582-0.326,1.237-0.497,1.903-0.496h0.01
			c0.678-0.001,1.346,0.178,1.934,0.518C14.165,8.072,14.801,10.446,13.731,12.307"/>
		<path clip-path="url(#SVGID_4_)" fill="#4285F4" d="M13.731,12.307c-1.07,1.859-3.445,2.5-5.306,1.43
			c-0.594-0.342-1.087-0.836-1.429-1.43L6.97,12.264c-1.049-1.873-0.382-4.241,1.49-5.29c0.582-0.326,1.237-0.497,1.903-0.496h0.01
			c0.678-0.001,1.346,0.178,1.934,0.518C14.165,8.072,14.801,10.446,13.731,12.307"/>
		<g opacity="0.1" clip-path="url(#SVGID_4_)">
			<g>
				<defs>
					<rect id="SVGID_5_" x="9.08" y="12.713" width="4.428" height="7.928"/>
				</defs>
				<clipPath id="SVGID_6_">
					<use xlink:href="#SVGID_5_"  overflow="visible"/>
				</clipPath>
				<polygon clip-path="url(#SVGID_6_)" points="9.08,20.641 11.489,14.079 13.508,12.713 				"/>
			</g>
		</g>
		<g opacity="0.1" clip-path="url(#SVGID_4_)">
			<g>
				<defs>
					<rect id="SVGID_7_" x="2.168" y="4.025" width="4.525" height="7.764"/>
				</defs>
				<clipPath id="SVGID_8_">
					<use xlink:href="#SVGID_7_"  overflow="visible"/>
				</clipPath>
				<polygon clip-path="url(#SVGID_8_)" points="2.168,4.025 6.56,9.282 6.693,11.79 				"/>
			</g>
		</g>
		<g opacity="0.1" clip-path="url(#SVGID_4_)">
			<g>
				<defs>
					<rect id="SVGID_9_" x="10.995" y="6.478" width="8.973" height="1.116"/>
				</defs>
				<clipPath id="SVGID_10_">
					<use xlink:href="#SVGID_9_"  overflow="visible"/>
				</clipPath>
				<polygon clip-path="url(#SVGID_10_)" points="19.967,6.478 13.19,7.595 10.995,6.478 				"/>
			</g>
		</g>
		<path clip-path="url(#SVGID_4_)" fill="#FAFAFA" d="M10.35,14.682c-0.753,0-1.493-0.199-2.145-0.574
			c-0.657-0.381-1.203-0.928-1.583-1.584C5.43,10.458,6.137,7.817,8.203,6.625c0.657-0.379,1.403-0.579,2.161-0.579
			c2.385-0.002,4.32,1.93,4.322,4.314c0,0.759-0.199,1.505-0.58,2.164C13.329,13.862,11.897,14.684,10.35,14.682 M10.372,6.91
			C9.133,6.903,7.985,7.563,7.367,8.638c-0.954,1.653-0.386,3.767,1.268,4.722c1.654,0.953,3.768,0.385,4.723-1.268
			c0.953-1.653,0.387-3.766-1.266-4.72c-0.523-0.302-1.115-0.461-1.719-0.462H10.372z"/>
	</g>
</g>
</svg>
