<?xml version="1.0" encoding="utf-8"?>
<!-- Generator: Adobe Illustrator 16.0.0, SVG Export Plug-In . SVG Version: 6.00 Build 0)  -->
<!DOCTYPE svg PUBLIC "-//W3C//DTD SVG 1.1//EN" "http://www.w3.org/Graphics/SVG/1.1/DTD/svg11.dtd">
<svg version="1.1" id="Isolation_Mode" xmlns="http://www.w3.org/2000/svg" xmlns:xlink="http://www.w3.org/1999/xlink" x="0px"
	 y="0px" width="12px" height="10px" viewBox="0 0 12 10" enable-background="new 0 0 12 10" xml:space="preserve">
<g>
	<path fill="#FFFFFF" d="M10.608,3.568C11.377,3.568,12,4.209,12,5s-0.623,1.432-1.392,1.432H1.391C0.623,6.432,0,5.791,0,5
		s0.623-1.432,1.391-1.432H10.608z"/>
	<path fill="#FFFFFF" d="M5.842,7.557c0.543,0.559,0.543,1.465,0,2.024c-0.543,0.559-1.424,0.559-1.967,0L0.408,6.012
		c-0.543-0.559-0.543-1.466,0-2.024c0.543-0.559,1.424-0.559,1.967,0L5.842,7.557z"/>
	<path fill="#FFFFFF" d="M5.842,2.444c0.543-0.56,0.543-1.466,0-2.024c-0.543-0.559-1.424-0.559-1.967,0L0.408,3.987
		c-0.543,0.56-0.543,1.466,0,2.025c0.543,0.559,1.424,0.559,1.967,0L5.842,2.444z"/>
	<polygon fill="#FFFFFF" points="6.249,8.51 6.249,1.305 4.189,1.93 4.189,7.748 	"/>
</g>
</svg>
