<?xml version="1.0" encoding="utf-8"?>
<!-- Generator: Adobe Illustrator 16.0.0, SVG Export Plug-In . SVG Version: 6.00 Build 0)  -->
<!DOCTYPE svg PUBLIC "-//W3C//DTD SVG 1.1//EN" "http://www.w3.org/Graphics/SVG/1.1/DTD/svg11.dtd">
<svg version="1.1" id="Isolation_Mode" xmlns="http://www.w3.org/2000/svg" xmlns:xlink="http://www.w3.org/1999/xlink" x="0px"
	 y="0px" width="12px" height="10px" viewBox="0 0 12 10" enable-background="new 0 0 12 10" xml:space="preserve">
<g>
	<path fill="#FFFFFF" d="M1.392,3.568C0.623,3.568,0,4.209,0,5s0.623,1.432,1.392,1.432h9.217C11.378,6.432,12,5.791,12,5
		s-0.622-1.432-1.392-1.432H1.392z"/>
	<path fill="#FFFFFF" d="M6.158,7.557c-0.543,0.559-0.543,1.465,0,2.024c0.543,0.559,1.424,0.559,1.967,0l3.468-3.569
		c0.543-0.559,0.543-1.466,0-2.024c-0.543-0.559-1.424-0.559-1.967,0L6.158,7.557z"/>
	<path fill="#FFFFFF" d="M6.158,2.444c-0.543-0.56-0.543-1.466,0-2.024c0.543-0.559,1.424-0.559,1.967,0l3.468,3.568
		c0.543,0.56,0.543,1.466,0,2.025s-1.424,0.559-1.967,0L6.158,2.444z"/>
	<polygon fill="#FFFFFF" points="5.751,8.51 5.751,1.305 7.812,1.93 7.812,7.748 	"/>
</g>
</svg>
