<?xml version="1.0" encoding="utf-8"?>
<!-- Generator: Adobe Illustrator 16.0.0, SVG Export Plug-In . SVG Version: 6.00 Build 0)  -->
<!DOCTYPE svg PUBLIC "-//W3C//DTD SVG 1.0//EN" "http://www.w3.org/TR/2001/REC-SVG-20010904/DTD/svg10.dtd">
<svg version="1.0" id="Layer_1" xmlns="http://www.w3.org/2000/svg" xmlns:xlink="http://www.w3.org/1999/xlink" x="0px" y="0px"
	 width="12px" height="14.996px" viewBox="0 0 12 14.996" enable-background="new 0 0 12 14.996" xml:space="preserve">
<g>
	<path fill="#FFFFFF" d="M10.705,6.169c-0.328,0-0.594,0.268-0.594,0.594v0.875c0,1.107-0.42,2.139-1.186,2.914
		c-0.775,0.791-1.814,1.227-2.924,1.227c-1.087,0-2.149-0.441-2.915-1.215c-0.77-0.772-1.195-1.803-1.195-2.894V6.763
		c0-0.326-0.267-0.594-0.596-0.594c-0.326,0-0.594,0.267-0.594,0.594v0.909c0,1.415,0.552,2.746,1.553,3.745
		c0.83,0.831,1.879,1.351,3.033,1.507l0.118,0.014v2.061h1.192v-2.061l0.115-0.016c1.154-0.154,2.205-0.676,3.033-1.507
		c1-1,1.553-2.33,1.553-3.745V6.763C11.301,6.436,11.033,6.169,10.705,6.169z"/>
	<path fill="#FFFFFF" d="M6.001,10.818c1.739,0,3.147-1.355,3.147-3.026V3.024c0-1.672-1.408-3.026-3.147-3.026
		c-1.737,0-3.146,1.354-3.146,3.026v4.767C2.855,9.463,4.265,10.818,6.001,10.818z"/>
</g>
</svg>
