<?xml version="1.0" encoding="utf-8"?>
<!-- Generator: Adobe Illustrator 16.0.0, SVG Export Plug-In . SVG Version: 6.00 Build 0)  -->
<!DOCTYPE svg PUBLIC "-//W3C//DTD SVG 1.0//EN" "http://www.w3.org/TR/2001/REC-SVG-20010904/DTD/svg10.dtd">
<svg version="1.0" id="Layer_1" xmlns="http://www.w3.org/2000/svg" xmlns:xlink="http://www.w3.org/1999/xlink" x="0px" y="0px"
	 width="12px" height="15px" viewBox="0.177 0 12 15" enable-background="new 0.177 0 12 15" xml:space="preserve">
<g>
	<path fill="#FFFFFF" d="M11.345,7.672V6.764c0-0.329-0.269-0.596-0.596-0.596c-0.329,0-0.597,0.268-0.597,0.596v0.875
		c0,0.174-0.014,0.346-0.033,0.516l0.992,0.992C11.252,8.672,11.345,8.182,11.345,7.672z"/>
	<path fill="#FFFFFF" d="M6.048,11.781c-1.086,0-2.147-0.443-2.914-1.213c-0.77-0.773-1.191-1.803-1.191-2.896v-0.91
		c0-0.329-0.269-0.596-0.597-0.596c-0.329,0-0.596,0.268-0.596,0.596v0.908c0,1.415,0.551,2.744,1.553,3.745
		c0.829,0.83,1.877,1.352,3.033,1.505l0.118,0.019V15h1.189v-2.061l0.119-0.019c0.923-0.122,1.77-0.491,2.498-1.053l-0.853-0.851
		C7.72,11.504,6.908,11.781,6.048,11.781z"/>
	<path fill="#FFFFFF" d="M9.195,3.026C9.195,1.355,7.786,0,6.048,0C4.926,0,3.942,0.566,3.385,1.418l5.811,5.809V3.026z"/>
	<path fill="#FFFFFF" d="M2.904,7.792c0,1.673,1.407,3.026,3.145,3.026c0.62,0,1.197-0.176,1.686-0.477l-4.83-4.83V7.792z"/>
	<path fill="#FFFFFF" d="M11.463,11.29l-0.619,0.62l0.292,0.292c0.171,0.17,0.448,0.17,0.619,0c0.172-0.171,0.172-0.449,0-0.62
		L11.463,11.29z"/>
	<path fill="#FFFFFF" d="M1.219,1.046c-0.17-0.172-0.448-0.172-0.62,0c-0.171,0.17-0.171,0.448,0,0.619l10.245,10.246l0.619-0.62
		L1.219,1.046z"/>
</g>
</svg>
