<?xml version="1.0" encoding="utf-8"?>
<!-- Generator: Adobe Illustrator 16.0.0, SVG Export Plug-In . SVG Version: 6.00 Build 0)  -->
<!DOCTYPE svg PUBLIC "-//W3C//DTD SVG 1.0//EN" "http://www.w3.org/TR/2001/REC-SVG-20010904/DTD/svg10.dtd">
<svg version="1.0" id="Layer_1" xmlns="http://www.w3.org/2000/svg" xmlns:xlink="http://www.w3.org/1999/xlink" x="0px" y="0px"
	 width="12px" height="15px" viewBox="0.177 0 12 15" enable-background="new 0.177 0 12 15" xml:space="preserve">
<g>
	<path fill="#FFFFFF" d="M11.345,7.67V6.764c0-0.329-0.269-0.596-0.596-0.596c-0.329,0-0.597,0.268-0.597,0.596v0.875
		c0,0.358-0.046,0.712-0.13,1.048l0.945,0.945C11.218,9.02,11.345,8.355,11.345,7.67z"/>
	<path fill="#FFFFFF" d="M6.761,12.922c1.094-0.146,2.09-0.617,2.897-1.371l-0.842-0.844c-0.759,0.693-1.734,1.074-2.771,1.074
		c-1.086,0-2.147-0.443-2.914-1.215c-0.77-0.771-1.191-1.803-1.191-2.894v-0.91c0-0.329-0.269-0.596-0.597-0.596
		S0.749,6.435,0.749,6.764v0.908c0,1.417,0.551,2.747,1.552,3.747c0.829,0.83,1.878,1.352,3.033,1.506l0.118,0.018v2.061h1.189
		v-2.061L6.761,12.922z"/>
	<path fill="#FFFFFF" d="M9.194,7.792V3.025c0-1.671-1.409-3.027-3.147-3.027c-1.292,0-2.404,0.752-2.887,1.823l6.032,6.034
		C9.192,7.834,9.194,7.813,9.194,7.792z"/>
	<path fill="#FFFFFF" d="M6.048,10.818c0.81,0,1.548-0.297,2.104-0.779L2.903,4.792v2.999C2.903,9.465,4.31,10.818,6.048,10.818z"/>
	<path fill="#FF1212" d="M11.756,10.436c0.514,0.514,0.514,1.348,0,1.861l0,0c-0.515,0.514-1.347,0.512-1.858,0L0.597,3
		c-0.514-0.514-0.514-1.347,0-1.86l0,0c0.515-0.514,1.347-0.513,1.859,0L11.756,10.436z"/>
</g>
</svg>
